<svg id="Layer_1" data-name="Layer 1" xmlns="http://www.w3.org/2000/svg" width="229.24" height="72" viewBox="0 0 229.24 72"><title>psu-mark</title><g id="Layer_2" data-name="Layer 2"><g id="Layer_1-2" data-name="Layer 1-2"><g id="_Group_" data-name=" Group "><g id="_Group_2" data-name=" Group 2"><g id="_Group_3" data-name=" Group 3"><path id="_Compound_Path_" data-name=" Compound Path " d="M33,72C18.59,63.42.4,50.95,0.4,28.9V5.68C7.05,3.16,17.34,0,33,0A89.85,89.85,0,0,1,65.65,5.68V28.9C65.65,51.14,46.75,63.93,33,72Z" style="fill:#fff"/></g><g id="_Group_4" data-name=" Group 4"><path id="_Compound_Path_2" data-name=" Compound Path 2" d="M42.84,41.85c0-.5.41-1.26,0.41-2s-1-1-1.78-1.1c-1.63-.23-2.21-0.15-2.21-0.51a1.68,1.68,0,0,1,.52-0.94,3.15,3.15,0,0,1,2-1,17.75,17.75,0,0,1,2.52-.2,14,14,0,0,1,2.44.24c1,0.17,1.16.59,1.16,1.07V37.9a1,1,0,0,1-1.09.87l-0.54.11a1.52,1.52,0,0,0-1.35.85C44.42,41.1,43.6,42.16,43,42.14a0.25,0.25,0,0,1-.19-0.3h0.05ZM44.24,19.8A0.34,0.34,0,0,1,44,19.48a2.35,2.35,0,0,1,.53-1c0.82-1.1,2-2.44,2.35-2.44a0.8,0.8,0,0,1,.58.61,2.76,2.76,0,0,1,.27,1.19,6.1,6.1,0,0,1-1.28,3.64A10.7,10.7,0,0,0,44.24,19.8ZM20.33,22.52a1.81,1.81,0,0,0,1.21-.86C22.77,20.28,24,20.1,24,19.52a1.6,1.6,0,0,0-.34-0.79A52.39,52.39,0,0,1,21,14,1.52,1.52,0,0,0,20,13.13a1.84,1.84,0,0,0-1.22,1,4.3,4.3,0,0,0-.79,2,14.31,14.31,0,0,0,.66,4C19.1,21.41,19.75,22.52,20.33,22.52Zm14.94,4.77a2.48,2.48,0,0,0-2.63-2.1,3.23,3.23,0,0,0-2.92,2A3,3,0,0,0,31.84,29c0.19,0.06.38,0.06,0.38,0.22s-0.24.34-.75,0.34a3.68,3.68,0,0,1-3-1.22,11.76,11.76,0,0,1-1.5.24A0.67,0.67,0,0,1,26.3,28s0,0,0-.05a2.19,2.19,0,0,1,.25-1l0.27-.54a4.8,4.8,0,0,1,2-2.45l0.85-.5a4.25,4.25,0,0,1,2.46-.61h0.73a3.23,3.23,0,0,1,2.32.78c1.07,0.9,1.65,1.38,1.65,2.05a3,3,0,0,1-.63,2.08,2.64,2.64,0,0,1-1.74,1.18,0.15,0.15,0,0,1-.18-0.17,0.55,0.55,0,0,1,.23-0.25,2.8,2.8,0,0,0,.7-1.2h0.07ZM42.43,50.2a13.37,13.37,0,0,1-3.27.21c-3.71,0-4.33-.91-4.33-1.63,0-1.21,5.31-2.05,7.4-2.05s2.89,0.65,2.89,1.14a3.37,3.37,0,0,1-2.75,2.29ZM21,61a117.16,117.16,0,0,0,12,8.08h0c0-3.63-.08-5.77,2.37-8.34l3-3.06A3.92,3.92,0,0,1,40,56.41c0.33,0,.34.12,0.34,0.44a7.35,7.35,0,0,0,.84,3,3.69,3.69,0,0,0,2.71,2.1c10.51-8,19.3-18.32,19.3-33V7.4c-2.59-.88-13.24-5-30.15-5S5.46,6.51,2.87,7.4V28.9a34.07,34.07,0,0,0,4.5,17c0.28-3,2.3-4.39,2.3-7.33,0-2-.58-3.34-0.58-5.05,0-3.1,4.18-9.46,6.35-12.06a0.57,0.57,0,0,1,.38-0.26,0.46,0.46,0,0,1,.37.25,0.77,0.77,0,0,0,.55.52,0.3,0.3,0,0,0,.33-0.34,18.09,18.09,0,0,1-.63-5c0-2.46.57-3,2.1-4.48a3.39,3.39,0,0,1,2-1.1,2.57,2.57,0,0,1,1.91,1.11,37.88,37.88,0,0,1,2.48,2.94,0.29,0.29,0,0,0,.24.15c0.44,0,.81-0.13,2.7-0.13a45.11,45.11,0,0,1,11.33,1.41,20.13,20.13,0,0,0,2,.76,0.17,0.17,0,0,0,.19-0.21A3.08,3.08,0,0,1,41,16.44a0.42,0.42,0,0,1,.23-0.34c2-1.07,3.7-1.88,5.25-1.88,0.91,0,1.35.79,1.73,1.56A5.28,5.28,0,0,1,48.85,18a7,7,0,0,1-1.44,4.3c0.31,0.32.75,0.8,1,1.12a3.58,3.58,0,0,1,1,2.07,7.44,7.44,0,0,1-.2,1.28,0.58,0.58,0,0,1-.53.55c-0.33,0-.37-0.32-0.38-0.61V26.53a3.24,3.24,0,0,0-2.73-3.16H45.32a2.74,2.74,0,0,0-2.13.87,2,2,0,0,0-.66,1.49,4.12,4.12,0,0,0,.59,1.48c0.2,0.4.71,1.34,1,1.83a1,1,0,0,0,.91.58c0.86,0,1.6-.12,1.6-0.38,0-.07,0-0.13-0.16-0.13H46.23c-1.13,0-1.72-1.42-2.28-2.72a2.39,2.39,0,0,1,1.79-.85,1.72,1.72,0,0,1,1.85,1.58h0v0.13a2.6,2.6,0,0,1-.24,1.08,0.51,0.51,0,0,0-.07.2c0,0.15.19,0.18,0.5,0.25l0.44,0.1a1.31,1.31,0,0,1,.83.78c0.1,0.26.32,0.87,0.37,1A7,7,0,0,1,49.9,33a6.71,6.71,0,0,1-.34,2.27A13.2,13.2,0,0,0,49,37.73a3,3,0,0,1,.18.41,4.8,4.8,0,0,1,.45,2v0.73a5,5,0,0,1-1.07,3c-0.43.58-1,1.39-1.39,1.85a1.19,1.19,0,0,1-.89.47,2.48,2.48,0,0,1-.55-0.1l-0.88-.23a1.77,1.77,0,0,1-1.28-1.34L43.4,44c-0.18-.46-0.28-0.76-0.57-0.76a0.71,0.71,0,0,0-.63.46,3.44,3.44,0,0,1-2.48,1.86L37.8,46a17.93,17.93,0,0,1-3,.55H34.27a4.08,4.08,0,0,1-3.21-1.83c-1.85-2.22-1.66-2.53-1.77-5.53a0.63,0.63,0,0,0-.47-0.75c-0.35,0-.45.64-0.56,1.53-0.13,1.06-.38,2.15-0.9,2.15a3.35,3.35,0,0,1-1.17-.29L23,40.78c-1.21-.4-2.36-0.72-2.82-1.78l-0.82-1.91a0.6,0.6,0,0,0-.48-0.52,0.72,0.72,0,0,0-.43.68,13.12,13.12,0,0,1-.18,1.62A6.73,6.73,0,0,1,16.76,43c-0.41.54-.79,1.08-1.24,1.67a7,7,0,0,0-1.45,4.86V51C14.16,54.51,15.05,56.24,21,61Z" style="fill:#002f87"/><path id="_Compound_Path_3" data-name=" Compound Path 3" d="M49,29.72h0c0.1,0.26.32,0.87,0.37,1A7,7,0,0,1,49.89,33a6.71,6.71,0,0,1-.34,2.27A13.2,13.2,0,0,0,49,37.77c-0.1-.2-1.91-3.33-2.05-3.59a1.64,1.64,0,0,1-.26-0.8,0.85,0.85,0,0,1,.54-0.76A8.37,8.37,0,0,1,48,32.21a1.78,1.78,0,0,0,1.16-1.7A5.38,5.38,0,0,0,49,29.72Zm-7.9,5a2.21,2.21,0,0,1,.18.74,1.06,1.06,0,0,1-.38.9l-0.49.43a1.76,1.76,0,0,0-.65.53,2.12,2.12,0,0,0-.52.94,0.21,0.21,0,0,0,.08.18,1.29,1.29,0,0,1-.51-1c0-.33.11-0.5,0.11-0.81a2.38,2.38,0,0,0-.12-0.67c-0.5-1.68-1.35-3.69-1.87-5.05s-1-2.15-1.55-2.15c-0.34,0-.63.16-1,0.17a2.64,2.64,0,0,0,1.73-1.11,3,3,0,0,0,.63-2.08,1.34,1.34,0,0,0-.38-0.89,10.06,10.06,0,0,1,1.76,2.86c1.17,2.37,2.14,5,3,7h0ZM14.07,51V49.52a7,7,0,0,1,1.45-4.86L16.76,43a6.73,6.73,0,0,0,1.48-4.12,15.83,15.83,0,0,1,.17-1.61,0.56,0.56,0,0,1,.43-0.68c0.32,0,.33.18,0.48,0.52L20.15,39c0.47,1.07,1.61,1.38,2.82,1.78l3.24,1.06a3.35,3.35,0,0,0,1.17.24c0.52,0,.77-1.1.9-2.15,0.11-.9.25-1.53,0.56-1.53a0.68,0.68,0,0,1,.47.75c0.11,3-.08,3.31,1.77,5.53a4.08,4.08,0,0,0,3.21,1.84A1.49,1.49,0,0,1,33.36,45V43.85a4.12,4.12,0,0,1,.33-1.7c0.13-.29.27-0.82,0.41-1.14a1.81,1.81,0,0,0,.18-1,6.25,6.25,0,0,0-.46-1.79c-0.17-.51-0.39-1.24-0.61-1.83-0.68-1.88-1-2.32-3.19-2.62l-4.53-.64C23,32.72,21,32.6,20,30.91c-1.23-2-1.11-4.47-2.28-4.47-0.56,0-.86.63-0.86,1.54s0.36,2.51.36,5.21a5.81,5.81,0,0,1-1.62,4.67c-0.35.45-.83,1.11-1.14,1.48-1,1.28-1.46,2-1.4,3.47A50.45,50.45,0,0,0,14.07,51Zm25.7,9c0.09-.94.5-2.5,0.5-3.14h0c0-.32-0.11-0.44-0.34-0.44a4.56,4.56,0,0,0-1.59,1.27l-3,3.06C32.89,63.25,33,65.38,33,69h0c2.73-1.64,5.23-3.23,7.07-4.48a14.46,14.46,0,0,1-.27-4.6h0Z" style="fill:#6dabe4"/></g></g><path id="_Compound_Path_4" data-name=" Compound Path 4" d="M218.05,21.42h11.11c0-5.72-2.8-9-7.56-9s-7.86,3.24-7.86,8.26c0,1.9.62,8.11,8.6,8.11a14.6,14.6,0,0,0,5.73-1V24.92a12,12,0,0,1-4.78.94C220.19,25.81,218.17,24,218.05,21.42Zm-15.72-5.83h2.16v8.87c0,2.68,1.92,4.33,5,4.33a13.74,13.74,0,0,0,3.36-.47V25.6a10,10,0,0,1-1.74.21c-1.92,0-2.67-.83-2.67-3V15.59h4.27v-2.8h-4.27V9.37h-4v3.42h-2.16Zm-12,.14a9.07,9.07,0,0,1,2.6-.51c2.34,0,3.38,1,3.38,3.21v0.92h-2.07c-5.25,0-8,1.71-8,5,0,2.72,2,4.48,5.18,4.48a5.89,5.89,0,0,0,5.22-2.55h0.11l0.13,2.17h4.86v-2.8h-1.64V18.55c0-4.06-2.4-6.12-7.14-6.12a13.33,13.33,0,0,0-5.9,1.58v3.81h3.35Zm-16-.14h2.16v8.87c0,2.68,1.92,4.33,5,4.33a13.74,13.74,0,0,0,3.36-.47V25.6a10.39,10.39,0,0,1-1.74.21c-1.92,0-2.67-.83-2.67-3V15.59h4.27v-2.8h-4.27V9.37h-4v3.42h-2.16ZM161.07,25V22.28h-3.73v5.37a21.09,21.09,0,0,0,7.11,1.15c5.3,0,8.22-2.35,8.22-6.63s-3.19-5.54-6.17-6.33l-2.12-.56c-1.71-.44-2.59-1.33-2.59-2.76s1.13-2.69,3.64-2.69a8,8,0,0,1,2.67.54V13h3.72V8.11A18.93,18.93,0,0,0,165.31,7c-5.05,0-7.84,2.1-7.84,5.92,0,3.41,1.58,5.23,5.48,6.28l1.82,0.5c2.55,0.69,3.6,1.61,3.6,3.19,0,1.75-1.25,2.72-3.52,2.72a16.26,16.26,0,0,1-3.78-.59h0Zm-58.51-3.58h11.11c0-5.72-2.8-9-7.56-9s-7.86,3.24-7.86,8.26c0,1.9.62,8.11,8.6,8.11a14.6,14.6,0,0,0,5.73-1V24.92a12,12,0,0,1-4.78.94c-3.08,0-5.09-1.82-5.21-4.43h0Zm24,7h7.52V25.63h-1.8v-7c0-3.77-2.36-6.21-6-6.21a5.72,5.72,0,0,0-5,2.46h-0.1l-0.12-2.09h-5.55v2.8h2.07v10h-1.74v2.8h7.52V25.63H121.6V19.37c0-2.28,1.24-3.6,3.4-3.6s3.42,1.31,3.42,3.6v6.27h-1.73Zm-46.67,0h8.35V25.63H86.19V20.19h3.4c4.81,0,7.69-2.39,7.69-6.4S94.4,7.39,89.59,7.39H79.94v2.8h2.15V25.63H79.94Zm112.76-2.48c-1.85,0-2.5-1.12-2.5-2.08,0-1.58,1.41-2.26,4.73-2.26h1.34v0.16c0,2.91-1.83,4.22-3.56,4.22Zm25.27-7.2c0.14-2.27,1.45-3.76,3.44-3.76a3.29,3.29,0,0,1,3.39,3.61v0.16h-6.82Zm-115.48,0C102.69,16.4,104,15,105.94,15a3.29,3.29,0,0,1,3.39,3.61v0.16h-6.86ZM89.13,17.39h-3v-7.2h2.93c2.4,0,3.9,1.38,3.9,3.61S91.49,17.39,89.13,17.39Zm57.89,11h7.52V25.63h-1.83v-7c0-3.77-2.36-6.21-6-6.21a5.72,5.72,0,0,0-5,2.46h-0.1l-0.12-2.09h-5.64v2.8H138v10h-1.74v2.8h7.52V25.63h-1.87V19.37c0-2.28,1.24-3.6,3.4-3.6s3.42,1.31,3.42,3.6v6.27H147ZM83.09,56.36L78.86,39.58h2.29l2,8.49c0.5,2.09.95,4.18,1.25,5.8h0c0.27-1.66.8-3.66,1.36-5.83l2.27-8.46h2.26l2,8.51c0.47,2,.92,4,1.17,5.75h0c0.35-1.84.82-3.71,1.34-5.8l2.21-8.46h2.21L94.59,56.36H92.33l-2.11-8.74a50.44,50.44,0,0,1-1.1-5.48h0a52.48,52.48,0,0,1-1.3,5.48l-2.39,8.74H83.09Zm28.32-6.13c0,4.45-3.09,6.4-6,6.4-3.26,0-5.78-2.39-5.78-6.2,0-4,2.64-6.4,6-6.4s5.8,2.51,5.8,6.2h0Zm-9.55.13c0,2.64,1.51,4.63,3.66,4.63s3.66-2,3.66-4.68c0-2-1-4.63-3.61-4.63s-3.69,2.39-3.69,4.68h0Zm12.31-2.29c0-1.41,0-2.64-.1-3.76H116L116,46.67h0.1A3.62,3.62,0,0,1,119.47,44a2.37,2.37,0,0,1,.62.08v2.06a3.29,3.29,0,0,0-.75-0.08,3.07,3.07,0,0,0-2.94,2.81,6.18,6.18,0,0,0-.1,1v6.43h-2.16Zm8.24-9.38h2.19V56.36h-2.19V38.68Zm16.28,0V53.24a29.89,29.89,0,0,0,.1,3.11h-2l-0.1-2.09h0a4.45,4.45,0,0,1-4.1,2.36c-2.91,0-5.15-2.46-5.15-6.13,0-4,2.46-6.48,5.4-6.48a4,4,0,0,1,3.68,1.82h0V38.68h2.17ZM136.5,49.22a3.84,3.84,0,0,0-.1-0.92,3.22,3.22,0,0,0-3.16-2.54c-2.26,0-3.61,2-3.61,4.65,0,2.44,1.2,4.45,3.56,4.45a3.29,3.29,0,0,0,3.21-2.61,3.78,3.78,0,0,0,.1-1v-2Zm22.91,6.6a10.76,10.76,0,0,1-4.43.8c-4.73,0-8.29-3-8.29-8.49,0-5.25,3.56-8.81,8.76-8.81a9,9,0,0,1,4,.75l-0.52,1.79a7.89,7.89,0,0,0-3.39-.7c-3.94,0-6.55,2.51-6.55,7,0,4.1,2.36,6.74,6.45,6.74a8.68,8.68,0,0,0,3.54-.7Zm9.14,0.55-0.18-1.55h-0.08a4.48,4.48,0,0,1-3.69,1.79,3.44,3.44,0,0,1-3.68-3.18V53.14c0-2.91,2.59-4.5,7.24-4.48V48.41a2.48,2.48,0,0,0-2.74-2.79,6,6,0,0,0-3.14.9l-0.5-1.44a7.47,7.47,0,0,1,4-1.07c3.69,0,4.58,2.51,4.58,5v4.5a16.94,16.94,0,0,0,.2,2.89Zm-0.32-6.15c-2.39,0-5.1.37-5.1,2.71A2,2,0,0,0,165,55h0.17a3,3,0,0,0,2.91-2,2.27,2.27,0,0,0,.13-0.7V50.21Zm5.65-2.64c0-1.25,0-2.26-.1-3.26h1.91l0.1,2h0.07a4.15,4.15,0,0,1,3.79-2.21,3.56,3.56,0,0,1,3.41,2.41h0a5,5,0,0,1,1.34-1.66,4.11,4.11,0,0,1,2.66-.85c1.59,0,4,1,4,5.23v7.09H189V49.53c0-2.31-.85-3.71-2.61-3.71a2.84,2.84,0,0,0-2.59,2,3.61,3.61,0,0,0-.17,1.1v7.44h-2.14V49.14c0-1.91-.85-3.31-2.51-3.31a3.25,3.25,0,0,0-2.88,3.26v7.27h-2.14Zm20.79,0.67c0-1.54,0-2.79-.1-4h2l0.1,2.06h0A4.73,4.73,0,0,1,200.95,44c2.91,0,5.1,2.46,5.1,6.13,0,4.33-2.64,6.48-5.48,6.48a4.22,4.22,0,0,1-3.71-1.89h0v6.6h-2.19v-13Zm2.16,3.21a5,5,0,0,0,.1.9,3.38,3.38,0,0,0,3.29,2.56c2.31,0,3.66-1.89,3.66-4.65,0-2.41-1.27-4.48-3.59-4.48A3.5,3.5,0,0,0,197,48.48a3.58,3.58,0,0,0-.15.9v2.07Zm22.08,1.61c0,1.25,0,2.34.1,3.29h-1.94l-0.13-2h0a4.53,4.53,0,0,1-4,2.24c-1.89,0-4.15-1-4.15-5.28v-7h2.19V51c0,2.29.7,3.84,2.69,3.84a3.17,3.17,0,0,0,2.89-2,3.21,3.21,0,0,0,.2-1.12V44.3h2.19v8.76h0Zm3.34,1a5.74,5.74,0,0,0,2.89.87c1.59,0,2.34-.8,2.34-1.79s-0.62-1.61-2.24-2.21c-2.16-.77-3.19-2-3.19-3.41,0-2,1.56-3.54,4.15-3.54a6,6,0,0,1,3,.75l-0.55,1.59a4.69,4.69,0,0,0-2.46-.7,1.73,1.73,0,0,0-2,1.64c0,0.9.72,1.44,2.29,2,2.09,0.8,3.16,1.84,3.16,3.64,0,2.11-1.64,3.61-4.5,3.61a6.87,6.87,0,0,1-3.39-.82Z" style="fill:#fff"/></g></g></g></svg>