<?xml version="1.0" encoding="utf-8"?>
<!-- Generator: Adobe Illustrator 19.0.0, SVG Export Plug-In . SVG Version: 6.00 Build 0)  -->
<svg version="1.1" id="Layer_1" xmlns="http://www.w3.org/2000/svg" xmlns:xlink="http://www.w3.org/1999/xlink" x="0px" y="0px"
	 viewBox="0 0 144 144" style="enable-background:new 0 0 144 144;" xml:space="preserve">
<style type="text/css">
	.st0{fill:#007BB5;}
	.st1{fill:#231F20;}
	.st2{fill:#FFFFFF;}
</style>
<rect id="XMLID_54_" x="0" y="0" class="st0" width="144" height="144"/>
<g id="XMLID_34_">
	<path id="XMLID_38_" class="st1" d="M161.1,116.2c1.7-0.2,2.6-1.1,2.6-2.7c0-1.9-1.2-2.8-3.5-2.8h-3.8v10h1.4v-4.4h1.8l0,0.1
		l2.8,4.3h1.5l-3-4.5L161.1,116.2z M159.4,115.2h-1.7v-3.4h2.1c1.1,0,2.3,0.2,2.3,1.6C162.2,115.1,161,115.2,159.4,115.2z"/>
	<path id="XMLID_35_" class="st1" d="M159.6,106.2c-5.3,0-9.5,4.2-9.5,9.5c0,5.3,4.2,9.5,9.5,9.5c5.3,0,9.5-4.2,9.5-9.5
		C169.1,110.4,164.9,106.2,159.6,106.2z M159.6,124c-4.5,0-8.1-3.6-8.1-8.2c0-4.7,3.6-8.2,8.1-8.2c4.5,0,8.1,3.6,8.1,8.2
		C167.7,120.4,164.2,124,159.6,124z"/>
</g>
<rect id="XMLID_18_" x="21.3" y="54" class="st2" width="21.4" height="68.7"/>
<path id="XMLID_17_" class="st2" d="M32,19.8c6.8,0,12.4,5.5,12.4,12.4c0,6.8-5.5,12.4-12.4,12.4c-6.9,0-12.4-5.5-12.4-12.4
	C19.6,25.4,25.2,19.8,32,19.8"/>
<path id="XMLID_2_" class="st2" d="M56.1,54h20.5v9.4h0.3c2.8-5.4,9.8-11.1,20.2-11.1c21.6,0,25.6,14.2,25.6,32.7v37.7h-21.4V89.3
	c0-8-0.1-18.2-11.1-18.2c-11.1,0-12.8,8.7-12.8,17.7v34H56.1V54z"/>
</svg>
