<?xml version="1.0" encoding="utf-8"?>
<!-- Generator: Adobe Illustrator 19.0.0, SVG Export Plug-In . SVG Version: 6.00 Build 0)  -->
<svg version="1.1" id="Layer_1" xmlns="http://www.w3.org/2000/svg" xmlns:xlink="http://www.w3.org/1999/xlink" x="0px" y="0px"
	 viewBox="0 0 144 144" style="enable-background:new 0 0 144 144;" xml:space="preserve">
<style type="text/css">
	.st0{fill:#FFFFFF;}
	.st1{fill:#BD081C;}
</style>
<rect class="st0" width="144" height="144"/>
<g>
	<path class="st0" d="M136.8,72c0,35.8-29,64.8-64.8,64.8S7.2,107.8,7.2,72c0-35.8,29-64.8,64.8-64.8S136.8,36.2,136.8,72"/>
	<g>
		<path class="st1" d="M71.9,12.1C38.8,12.1,12,38.9,12,72c0,25.4,15.8,47.1,38.1,55.8c-0.5-4.7-1-12,0.2-17.2
			c1.1-4.7,7-29.8,7-29.8s-1.8-3.6-1.8-8.9c0-8.3,4.8-14.6,10.8-14.6c5.1,0,7.6,3.8,7.6,8.4c0,5.1-3.3,12.8-5,19.9
			c-1.4,6,3,10.8,8.9,10.8c10.6,0,18.8-11.2,18.8-27.4c0-14.3-10.3-24.4-25-24.4c-17,0-27.1,12.8-27.1,26c0,5.1,2,10.7,4.5,13.7
			c0.5,0.6,0.6,1.1,0.4,1.7c-0.5,1.9-1.5,6-1.7,6.8c-0.3,1.1-0.9,1.3-2,0.8c-7.5-3.5-12.2-14.4-12.2-23.2
			c0-18.9,13.7-36.3,39.6-36.3c20.8,0,36.9,14.8,36.9,34.6c0,20.6-13,37.3-31.1,37.3c-6.1,0-11.8-3.2-13.7-6.9c0,0-3,11.4-3.7,14.2
			c-1.4,5.2-5,11.7-7.4,15.7c5.6,1.7,11.6,2.7,17.7,2.7c33.1,0,59.9-26.8,59.9-59.9C131.8,38.9,105,12.1,71.9,12.1z"/>
	</g>
</g>
</svg>
