<?xml version="1.0" encoding="utf-8"?>
<!-- Generator: Adobe Illustrator 19.0.0, SVG Export Plug-In . SVG Version: 6.00 Build 0)  -->
<svg version="1.1" id="Logo" xmlns="http://www.w3.org/2000/svg" xmlns:xlink="http://www.w3.org/1999/xlink" x="0px" y="0px"
	 viewBox="0 0 512 512" style="enable-background:new 0 0 512 512;" xml:space="preserve">
<style type="text/css">
	.st0{fill:#4C68D7;}
	.st1{fill:#FFFFFF;}
</style>
<rect x="0" y="0" class="st0" width="512" height="512"/>
<g>
	<path class="st1" d="M256,97c51.8,0,57.9,0.2,78.4,1.1c18.9,0.9,29.2,4,36,6.7c9.1,3.5,15.5,7.7,22.3,14.5
		c6.8,6.8,11,13.2,14.5,22.3c2.7,6.8,5.8,17.1,6.7,36c0.9,20.5,1.1,26.6,1.1,78.4s-0.2,57.9-1.1,78.4c-0.9,18.9-4,29.2-6.7,36
		c-3.5,9.1-7.7,15.5-14.5,22.3c-6.8,6.8-13.2,11-22.3,14.5c-6.8,2.7-17.1,5.8-36,6.7c-20.5,0.9-26.6,1.1-78.4,1.1
		s-57.9-0.2-78.4-1.1c-18.9-0.9-29.2-4-36-6.7c-9.1-3.5-15.5-7.7-22.3-14.5c-6.8-6.8-11-13.2-14.5-22.3c-2.7-6.8-5.8-17.1-6.7-36
		C97.2,313.9,97,307.8,97,256s0.2-57.9,1.1-78.4c0.9-18.9,4-29.2,6.7-36c3.5-9.1,7.7-15.5,14.5-22.3c6.8-6.8,13.2-11,22.3-14.5
		c6.8-2.7,17.1-5.8,36-6.7C198.1,97.2,204.2,97,256,97 M256,62c-52.7,0-59.3,0.2-80,1.2c-20.6,0.9-34.7,4.2-47.1,9
		c-12.8,5-23.6,11.6-34.4,22.4c-10.8,10.8-17.4,21.6-22.4,34.4c-4.8,12.3-8.1,26.4-9,47.1c-0.9,20.7-1.2,27.3-1.2,80
		c0,52.7,0.2,59.3,1.2,80c0.9,20.6,4.2,34.7,9,47.1c5,12.8,11.6,23.6,22.4,34.4c10.8,10.8,21.6,17.4,34.4,22.4
		c12.3,4.8,26.4,8.1,47.1,9c20.7,0.9,27.3,1.2,80,1.2s59.3-0.2,80-1.2c20.6-0.9,34.7-4.2,47.1-9c12.8-5,23.6-11.6,34.4-22.4
		c10.8-10.8,17.4-21.6,22.4-34.4c4.8-12.3,8.1-26.4,9-47.1c0.9-20.7,1.2-27.3,1.2-80s-0.2-59.3-1.2-80c-0.9-20.6-4.2-34.7-9-47.1
		c-5-12.8-11.6-23.6-22.4-34.4c-10.8-10.8-21.6-17.4-34.4-22.4c-12.3-4.8-26.4-8.1-47.1-9C315.3,62.2,308.7,62,256,62L256,62z"/>
	<path class="st1" d="M256,156.4c-55,0-99.6,44.6-99.6,99.6s44.6,99.6,99.6,99.6s99.6-44.6,99.6-99.6S311,156.4,256,156.4z
		 M256,320.7c-35.7,0-64.7-28.9-64.7-64.7s28.9-64.7,64.7-64.7s64.7,28.9,64.7,64.7S291.7,320.7,256,320.7z"/>
	<circle class="st1" cx="359.5" cy="152.5" r="23.3"/>
</g>
</svg>
