<?xml version="1.0" encoding="utf-8"?>
<!-- Generator: Adobe Illustrator 19.0.0, SVG Export Plug-In . SVG Version: 6.00 Build 0)  -->
<svg version="1.1" id="Layer_1" xmlns="http://www.w3.org/2000/svg" xmlns:xlink="http://www.w3.org/1999/xlink" x="0px" y="0px"
	 viewBox="0 0 144 144" style="enable-background:new 0 0 144 144;" xml:space="preserve">
<style type="text/css">
	.st0{fill:#CC2127;}
	.st1{fill:#FFFFFF;}
</style>
<rect id="XMLID_44_" x="0" y="0" class="st0" width="144" height="144"/>
<g id="XMLID_24_">
	<path id="u_2_" class="st1" d="M56.4,87.9h-4.7v-2.7c-1.8,2-3.3,3-4.9,3c-1.4,0-2.4-0.7-2.9-1.9c-0.3-0.7-0.5-1.9-0.5-3.6V63.1h4.7
		v18.4c0,1,0,1.5,0,1.7c0.1,0.7,0.4,0.9,1,0.9c0.9,0,1.7-0.8,2.7-2.2V63.1h4.7V87.9z"/>
	<path id="o_2_" class="st1" d="M40,71.2c0-2.6-0.5-4.6-1.5-5.9c-1.2-1.7-3.2-2.4-5.2-2.4c-2.2,0-3.9,0.7-5.2,2.4
		c-1,1.3-1.5,3.3-1.5,5.9l0,8.8c0,2.6,0.5,4.5,1.4,5.7c1.2,1.7,3.2,2.6,5.2,2.6s4-0.9,5.2-2.6c0.9-1.2,1.4-3.1,1.4-5.7V71.2z
		 M35.3,80.5c0.2,2.5-0.5,3.7-2,3.7c-1.4,0-2.2-1.2-2-3.7v-9.8c-0.2-2.5,0.5-3.6,2-3.6c1.4,0,2.2,1.1,2,3.6L35.3,80.5z"/>
	<path id="y_2_" class="st1" d="M21.6,74.4v13.5h-4.9V74.4c0,0-5.1-16.5-6.1-19.6h5.2l3.4,12.9l3.4-12.9h5.2L21.6,74.4z"/>
	<g id="XMLID_27_">
		<path id="XMLID_41_" class="st1" d="M104.4,67c-0.7,0-1.6,0.4-2.3,1.1l0,14.9c0.7,0.7,1.6,1.1,2.3,1.1c1.3,0,1.9-0.9,1.9-3.4V70.2
			C106.2,67.7,105.6,67,104.4,67z"/>
		<path id="XMLID_40_" class="st1" d="M122.6,70c0-2.3-0.6-2.9-2.1-2.9c-1.5,0-2.1,0.6-2.1,2.9v2.7l4.2,0V70z"/>
		<path id="XMLID_29_" class="st1" d="M132.7,57.4c0,0-0.7-5-2.9-7.2c-2.8-2.9-5.9-2.9-7.3-3.1c-10.2-0.7-25.6-0.7-25.6-0.7h0
			c0,0-15.4,0-25.6,0.7c-1.4,0.2-4.6,0.2-7.3,3.1c-2.2,2.2-2.9,7.2-2.9,7.2s-0.7,5.9-0.7,11.8v5.5c0,5.9,0.7,11.8,0.7,11.8
			s0.7,5,2.9,7.2c2.8,2.9,6.4,2.8,8.1,3.1c5.9,0.6,24.9,0.7,24.9,0.7s15.4,0,25.6-0.8c1.4-0.2,4.6-0.2,7.3-3.1
			c2.2-2.2,2.9-7.2,2.9-7.2s0.7-5.9,0.7-11.8v-5.5C133.4,63.3,132.7,57.4,132.7,57.4z M76.3,87.9h-4.9V59.7h-5.2V55l15.5,0v4.7h-5.4
			V87.9z M93.9,87.9h-4.7v-2.7c-1.8,2-3.3,3-4.9,3c-1.4,0-2.4-0.7-2.9-1.9c-0.3-0.7-0.5-1.9-0.5-3.6V63.3h4.7v18.1c0,1,0,1.5,0,1.7
			c0.1,0.7,0.4,0.9,1,0.9c0.9,0,1.7-0.8,2.7-2.2V63.3h4.7V87.9z M110.9,80.5c0,2.3-0.2,3.9-0.5,4.9c-0.6,1.8-1.9,2.8-3.7,2.8
			c-1.6,0-3.2-0.9-4.7-2.8l0,2.5h-4.4V55h4.4l0,10.7c1.4-1.8,3.1-2.8,4.7-2.8c1.8,0,3,1,3.5,2.9c0.3,1,0.6,2.6,0.6,4.9V80.5z
			 M120.6,84.1c1.1,0,1.7-0.6,2-1.8c0-0.2,0-1.3,0-3.1h4.7V80c0,1.4-0.1,2.4-0.2,2.9c-0.1,1-0.5,1.9-1,2.7c-1.2,1.8-3.1,2.7-5.4,2.7
			c-2.3,0-4.1-0.8-5.4-2.5c-0.9-1.2-1.5-3-1.5-5.7v-8.6c0-2.6,0.6-4.6,1.5-5.9c1.3-1.7,3.1-2.6,5.3-2.6c2.2,0,4,0.9,5.2,2.6
			c0.9,1.2,1.4,3.2,1.4,5.8l0,5h-8.8v4.4C118.5,83,119.1,84.1,120.6,84.1z"/>
	</g>
</g>
</svg>
