<?xml version="1.0" encoding="utf-8"?>
<!-- Generator: Adobe Illustrator 19.0.0, SVG Export Plug-In . SVG Version: 6.00 Build 0)  -->
<svg version="1.1" id="Logo" xmlns="http://www.w3.org/2000/svg" xmlns:xlink="http://www.w3.org/1999/xlink" x="0px" y="0px"
	 viewBox="0 0 512 512" style="enable-background:new 0 0 512 512;" xml:space="preserve">
<style type="text/css">
	.st0{fill:#E6E7E8;}
	.st1{fill:#0065A1;}
</style>
<rect x="0" class="st0" width="512" height="512"/>
<g>
	<path class="st1" d="M52.9,161.6h46.9c21.8,0,37.5,3.2,47.2,9.5c9.7,6.3,14.5,16.4,14.5,30.1c0,9.2-2.4,16.9-7.1,23
		c-4.8,6.1-11.6,10-20.5,11.6v1.1c11.1,2.1,19.3,6.2,24.5,12.4c5.2,6.2,7.8,14.5,7.8,25c0,14.2-5,25.3-14.9,33.4
		c-9.9,8-23.7,12.1-41.4,12.1H52.9V161.6z M78.8,226.9h24.9c10.8,0,18.7-1.7,23.7-5.1c5-3.4,7.5-9.2,7.5-17.5
		c0-7.4-2.7-12.8-8.1-16.1c-5.4-3.3-13.9-5-25.6-5H78.8V226.9z M78.8,247.9v50.1h27.5c10.8,0,19-2.1,24.5-6.2
		c5.5-4.1,8.3-10.7,8.3-19.6c0-8.2-2.8-14.3-8.4-18.3c-5.6-4-14.2-5.9-25.6-5.9H78.8z"/>
	<path class="st1" d="M212.4,319.6H187V151.4h25.4V319.6z"/>
	<path class="st1" d="M344.4,259.6c0,19.5-5,34.8-15,45.7c-10,11-24,16.4-41.8,16.4c-11.2,0-21-2.5-29.6-7.6
		c-8.6-5-15.2-12.3-19.8-21.7c-4.6-9.4-6.9-20.4-6.9-32.9c0-19.4,5-34.5,14.9-45.4c9.9-10.9,24-16.3,42.1-16.3
		c17.3,0,31,5.6,41.1,16.7C339.4,225.7,344.4,240.8,344.4,259.6z M257.4,259.6c0,27.6,10.2,41.4,30.6,41.4
		c20.2,0,30.3-13.8,30.3-41.4c0-27.3-10.2-41-30.5-41c-10.7,0-18.4,3.5-23.2,10.6C259.8,236.3,257.4,246.4,257.4,259.6z"/>
	<path class="st1" d="M464,200.1V214l-20.4,3.8c1.9,2.5,3.4,5.6,4.6,9.3c1.2,3.7,1.8,7.6,1.8,11.7c0,12.3-4.3,22-12.8,29.1
		c-8.5,7.1-20.2,10.6-35.1,10.6c-3.8,0-7.3-0.3-10.4-0.9c-5.5,3.4-8.2,7.4-8.2,11.9c0,2.7,1.3,4.8,3.8,6.2c2.6,1.4,7.3,2.1,14.1,2.1
		h20.9c13.2,0,23.2,2.8,30.1,8.4c6.8,5.6,10.3,13.7,10.3,24.3c0,13.6-5.6,24-16.8,31.4c-11.2,7.4-27.3,11-48.4,11
		c-16.3,0-28.7-2.9-37.3-8.7c-8.6-5.8-12.9-14-12.9-24.7c0-7.4,2.3-13.5,7-18.5c4.6-5,11.2-8.5,19.5-10.4c-3.4-1.4-6.2-3.8-8.4-7
		c-2.2-3.2-3.3-6.6-3.3-10.1c0-4.5,1.3-8.3,3.8-11.4c2.5-3.1,6.3-6.2,11.2-9.2c-6.2-2.7-11.2-7-15.1-13c-3.9-6-5.8-13.1-5.8-21.1
		c0-13,4.1-23,12.3-30.2c8.2-7.1,19.8-10.7,35-10.7c3.4,0,6.9,0.2,10.7,0.7c3.7,0.5,6.5,1,8.4,1.5H464z M370.1,338.2
		c0,5.5,2.5,9.7,7.4,12.7c4.9,3,11.9,4.4,20.8,4.4c13.8,0,24.1-2,30.9-5.9c6.8-4,10.2-9.2,10.2-15.8c0-5.2-1.9-8.9-5.6-11.1
		c-3.7-2.2-10.6-3.3-20.7-3.3h-19.2c-7.3,0-13.1,1.7-17.4,5.1C372.2,327.8,370.1,332.4,370.1,338.2z M381,238.8
		c0,7.5,1.9,13.3,5.8,17.3c3.9,4,9.4,6.1,16.6,6.1c14.7,0,22.1-7.9,22.1-23.6c0-7.8-1.8-13.8-5.5-18c-3.6-4.2-9.2-6.3-16.6-6.3
		c-7.4,0-12.9,2.1-16.7,6.3C382.9,224.7,381,230.8,381,238.8z"/>
</g>
</svg>
