<?xml version="1.0" encoding="utf-8"?>
<!-- Generator: Adobe Illustrator 19.0.0, SVG Export Plug-In . SVG Version: 6.00 Build 0)  -->
<svg version="1.1" id="Layer_1" xmlns="http://www.w3.org/2000/svg" xmlns:xlink="http://www.w3.org/1999/xlink" x="0px" y="0px"
	 viewBox="0 0 144 144" style="enable-background:new 0 0 144 144;" xml:space="preserve">
<style type="text/css">
	.st0{fill:#429CD6;}
	.st1{fill:#FFFFFF;}
	.st2{fill:none;}
</style>
<rect id="XMLID_6_" x="0" y="0" class="st0" width="144" height="144"/>
<g id="XMLID_3_">
	<path id="XMLID_5_" class="st1" d="M55.3,108.6c34,0,52.5-28.1,52.5-52.5c0-0.8,0-1.6-0.1-2.4c3.6-2.6,6.7-5.9,9.2-9.6
		c-3.3,1.5-6.9,2.5-10.6,2.9c3.8-2.3,6.7-5.9,8.1-10.2c-3.6,2.1-7.5,3.7-11.7,4.5c-3.4-3.6-8.2-5.8-13.5-5.8
		c-10.2,0-18.5,8.3-18.5,18.5c0,1.4,0.2,2.9,0.5,4.2C56,57.3,42.4,50,33.3,38.8c-1.6,2.7-2.5,5.9-2.5,9.3c0,6.4,3.3,12.1,8.2,15.4
		c-3-0.1-5.9-0.9-8.4-2.3c0,0.1,0,0.2,0,0.2c0,8.9,6.4,16.4,14.8,18.1c-1.6,0.4-3.2,0.6-4.9,0.6c-1.2,0-2.3-0.1-3.5-0.3
		c2.4,7.3,9.2,12.7,17.2,12.8c-6.3,5-14.3,7.9-22.9,7.9c-1.5,0-3-0.1-4.4-0.3C35.2,105.5,44.9,108.6,55.3,108.6"/>
	<rect id="XMLID_4_" x="0" y="0" class="st2" width="144" height="144"/>
</g>
</svg>
