<?xml version="1.0" encoding="utf-8"?>
<!-- Generator: Adobe Illustrator 19.0.0, SVG Export Plug-In . SVG Version: 6.00 Build 0)  -->
<svg version="1.1" id="Layer_1" xmlns="http://www.w3.org/2000/svg" xmlns:xlink="http://www.w3.org/1999/xlink" x="0px" y="0px"
	 viewBox="0 0 144 144" style="enable-background:new 0 0 144 144;" xml:space="preserve">
<style type="text/css">
	.st0{fill:#DB4E41;}
	.st1{fill:#FFFFFF;}
</style>
<rect class="st0" width="144" height="144"/>
<g id="XMLID_8_">
	<path id="XMLID_10_" class="st1" d="M32.4,72.4c-0.5-13,10.9-24.9,23.8-25.1c6.6-0.6,13,2,18.1,6.2c-2.1,2.3-4.1,4.5-6.4,6.6
		c-4.4-2.7-9.7-4.7-14.9-2.9c-8.3,2.4-13.3,12.2-10.3,20.3c2.5,8.5,12.9,13.1,21,9.6c4.2-1.5,7-5.4,8.2-9.5c-4.8-0.1-9.6,0-14.4-0.2
		c0-2.9,0-5.7,0-8.6c8,0,16,0,24,0c0.5,7-0.5,14.5-5.1,20.1c-6.2,8-17.7,10.4-27.1,7.2C39.4,93,32.1,82.9,32.4,72.4z"/>
	<path id="XMLID_9_" class="st1" d="M97.1,61.6c2.4,0,4.8,0,7.1,0c0,2.4,0,4.8,0,7.2c2.4,0,4.8,0,7.2,0c0,2.4,0,4.8,0,7.2
		c-2.4,0-4.8,0-7.2,0c0,2.4,0,4.8,0,7.2c-2.4,0-4.8,0-7.2,0c0-2.4,0-4.8,0-7.2c-2.4,0-4.8,0-7.2,0c0-2.4,0-4.8,0-7.2
		c2.4,0,4.8,0,7.2,0C97.1,66.4,97.1,64,97.1,61.6z"/>
</g>
</svg>
